<svg xmlns="http://www.w3.org/2000/svg" viewBox="0 0 210.31 215.65">
  <defs>
    <style>
      .cls-1 {
        fill: #959636;
      }

      .cls-2 {
        font-size: 12.86px;
        fill: #f1f2f2;
        font-family: MyriadPro-Regular, Myriad Pro;
      }
    </style>
  </defs>
  <title>circletext</title>
  <g id="Layer_2" data-name="Layer 2">
    <ellipse class="cls-1" cx="105.15" cy="107.82" rx="105.15" ry="107.82"/>
  </g>
  <g id="Layer_1" data-name="Layer 1">
    <text class="cls-2" transform="matrix(-0.64, -0.67, 0.72, -0.69, 40.55, 174.45)">K</text>
    <text class="cls-2" transform="translate(36.16 169.84) rotate(-129.94) scale(0.93 1)">e</text>
    <text class="cls-2" transform="translate(32.39 165.28) rotate(-127.31) scale(0.93 1)">i</text>
    <text class="cls-2" transform="matrix(-0.54, -0.76, 0.82, -0.58, 30.73, 163.13)">t</text>
    <text class="cls-2" transform="matrix(-0.5, -0.79, 0.85, -0.53, 28.46, 160)">h</text>
    <text class="cls-2" transform="matrix(-0.46, -0.81, 0.87, -0.49, 25.03, 154.43)"> </text>
    <text class="cls-2" transform="translate(23.74 152.38) rotate(-115.73) scale(0.93 1)">M</text>
    <text class="cls-2" transform="translate(19.66 143.76) rotate(-111.07) scale(0.93 1)">a</text>
    <text class="cls-2" transform="translate(17.64 138.44) rotate(-108.15) scale(0.93 1)">r</text>
    <text class="cls-2" transform="translate(16.36 134.55) rotate(-105.62) scale(0.93 1)">t</text>
    <text class="cls-2" transform="translate(15.32 130.79) rotate(-103.59) scale(0.93 1)">i</text>
    <text class="cls-2" transform="translate(14.64 128.18) rotate(-100.76) scale(0.93 1)">n</text>
    <text class="cls-2" transform="matrix(-0.12, -0.92, 0.99, -0.13, 13.45, 121.73)">-</text>
    <text class="cls-2" transform="matrix(-0.08, -0.93, 1, -0.08, 12.95, 118.22)">S</text>
    <text class="cls-2" transform="translate(12.44 112.47) rotate(-90.92) scale(0.93 1)">m</text>
    <text class="cls-2" transform="translate(12.46 102.63) rotate(-86.42) scale(0.93 1)">i</text>
    <text class="cls-2" transform="translate(12.62 99.9) rotate(-84.42) scale(0.93 1)">t</text>
    <text class="cls-2" transform="translate(12.95 96.05) rotate(-81.25) scale(0.93 1)">h</text>
    <text class="cls-2" transform="translate(13.99 89.59) rotate(-78.52) scale(0.93 1)"> </text>
    <text class="cls-2" transform="translate(14.47 87.16) rotate(-76.66) scale(0.93 1)">-</text>
    <text class="cls-2" transform="translate(15.32 83.65) rotate(-74.79) scale(0.93 1)"> </text>
    <text class="cls-2" transform="translate(15.92 81.28) rotate(-72.23) scale(0.93 1)">e</text>
    <text class="cls-2" transform="matrix(0.33, -0.87, 0.94, 0.35, 17.76, 75.64)">l</text>
    <text class="cls-2" transform="matrix(0.37, -0.86, 0.92, 0.39, 18.66, 73.08)">u</text>
    <text class="cls-2" transform="translate(21.24 67.15) rotate(-63.35) scale(0.93 1)">s</text>
    <text class="cls-2" transform="translate(23.35 62.98) rotate(-61.08) scale(0.93 1)">i</text>
    <text class="cls-2" transform="translate(24.63 60.6) rotate(-58.53) scale(0.93 1)">v</text>
    <text class="cls-2" transform="translate(27.51 55.87) rotate(-55.08) scale(0.93 1)">e</text>
    <text class="cls-2" transform="matrix(0.58, -0.73, 0.78, 0.62, 30.86, 51.05)">o</text>
    <text class="cls-2" transform="translate(34.92 46.03) rotate(-48.21) scale(0.93 1)">r</text>
    <text class="cls-2" transform="matrix(0.65, -0.67, 0.71, 0.7, 37.38, 43.24)">c</text>
    <text class="cls-2" transform="translate(41.03 39.49) rotate(-41.92) scale(0.93 1)">h</text>
    <text class="cls-2" transform="matrix(0.72, -0.59, 0.63, 0.78, 45.94, 35.14)">i</text>
    <text class="cls-2" transform="translate(47.99 33.41) rotate(-36.23) scale(0.93 1)">d</text>
    <text class="cls-2" transform="translate(53.35 29.51) rotate(-32.78) scale(0.93 1)">s</text>
    <text class="cls-2" transform="translate(57.31 26.99) rotate(-30.57) scale(0.93 1)"> </text>
    <text class="cls-2" transform="translate(59.42 25.73) rotate(-28.7) scale(0.93 1)">-</text>
    <text class="cls-2" transform="matrix(0.83, -0.42, 0.45, 0.89, 62.59, 24)">i</text>
    <text class="cls-2" transform="translate(64.97 22.72) rotate(-23.49) scale(0.93 1)">N</text>
    <text class="cls-2" transform="translate(72.08 19.66) rotate(-19.34) scale(0.93 1)">a</text>
    <text class="cls-2" transform="translate(77.38 17.82) rotate(-16.41) scale(0.93 1)">t</text>
    <text class="cls-2" transform="translate(81.06 16.7) rotate(-13.19) scale(0.93 1)">u</text>
    <text class="cls-2" transform="matrix(0.92, -0.16, 0.17, 0.98, 87.39, 15.25)">r</text>
    <text class="cls-2" transform="translate(91.09 14.57) rotate(-7.08) scale(0.93 1)">a</text>
    <text class="cls-2" transform="translate(96.73 13.9) rotate(-4.49) scale(0.93 1)">l</text>
    <text class="cls-2" transform="translate(99.48 13.69) rotate(-2.81) scale(0.93 1)">i</text>
    <text class="cls-2" transform="matrix(0.93, -0.02, 0.02, 1, 102.21, 13.55)">s</text>
    <text class="cls-2" transform="matrix(0.93, 0.03, -0.04, 1, 106.84, 13.49)">t</text>
    <text class="cls-2" transform="translate(110.76 13.64) rotate(3.99) scale(0.93 1)"> </text>
    <text class="cls-2" transform="matrix(0.93, 0.1, -0.1, 0.99, 113.22, 13.8)">-</text>
    <text class="cls-2" transform="translate(116.73 14.11) rotate(9.17) scale(0.93 1)">A</text>
    <text class="cls-2" transform="translate(123.74 15.16) rotate(14.4) scale(0.93 1)">m</text>
    <text class="cls-2" transform="translate(133.25 17.69) rotate(19.21) scale(0.93 1)">a</text>
    <text class="cls-2" transform="translate(138.6 19.53) rotate(22.99) scale(0.93 1)">u</text>
    <text class="cls-2" transform="translate(144.55 22.1) rotate(26.17) scale(0.93 1)">r</text>
    <text class="cls-2" transform="translate(147.87 23.68) rotate(29.27) scale(0.93 1)">o</text>
    <text class="cls-2" transform="matrix(0.78, 0.51, -0.55, 0.84, 153.49, 26.82)">b</text>
    <text class="cls-2" transform="matrix(0.75, 0.55, -0.59, 0.81, 159.09, 30.56)">i</text>
    <text class="cls-2" transform="translate(161.3 32.17) rotate(37.88) scale(0.93 1)">i</text>
    <text class="cls-2" transform="matrix(0.71, 0.61, -0.65, 0.76, 163.45, 33.78)">d</text>
    <text class="cls-2" transform="matrix(0.67, 0.65, -0.7, 0.71, 168.47, 38.12)">a</text>
    <text class="cls-2" transform="matrix(0.62, 0.69, -0.74, 0.67, 172.51, 42.07)">e</text>
    <text class="cls-2" transform="translate(176.43 46.49) rotate(50.53) scale(0.93 1)"> </text>
    <text class="cls-2" transform="translate(177.72 47.98) rotate(52.78) scale(0.93 1)">T</text>
    <text class="cls-2" transform="matrix(0.52, 0.77, -0.83, 0.56, 180.81, 52.02)">a</text>
    <text class="cls-2" transform="translate(183.98 56.7) rotate(58.96) scale(0.93 1)">s</text>
    <text class="cls-2" transform="translate(186.44 60.58) rotate(63.37) scale(0.93 1)">m</text>
    <text class="cls-2" transform="translate(190.78 69.4) rotate(68.1) scale(0.93 1)">a</text>
    <text class="cls-2" transform="translate(192.9 74.64) rotate(71.83) scale(0.93 1)">n</text>
    <text class="cls-2" transform="translate(194.9 80.86) rotate(74.66) scale(0.93 1)">i</text>
    <text class="cls-2" transform="translate(195.65 83.47) rotate(77.23) scale(0.93 1)">a</text>
  </g>
</svg>
